solid OpenSCAD_Model
  facet normal 0.666667 0.666667 0.333333
    outer loop
      vertex 0 2.5 -2.5
      vertex 0 0 2.5
      vertex 2.5 0 -2.5
    endloop
  endfacet
  facet normal -0.666667 0.666667 0.333333
    outer loop
      vertex -2.5 -0 -2.5
      vertex 0 0 2.5
      vertex 0 2.5 -2.5
    endloop
  endfacet
  facet normal -0.666667 -0.666667 0.333333
    outer loop
      vertex -0 -2.5 -2.5
      vertex 0 0 2.5
      vertex -2.5 -0 -2.5
    endloop
  endfacet
  facet normal 0.666667 -0.666667 0.333333
    outer loop
      vertex 2.5 0 -2.5
      vertex 0 0 2.5
      vertex -0 -2.5 -2.5
    endloop
  endfacet
  facet normal 0 0 -1
    outer loop
      vertex -0 -2.5 -2.5
      vertex 0 2.5 -2.5
      vertex 2.5 0 -2.5
    endloop
  endfacet
  facet normal 0 0 -1
    outer loop
      vertex 0 2.5 -2.5
      vertex -0 -2.5 -2.5
      vertex -2.5 -0 -2.5
    endloop
  endfacet
endsolid OpenSCAD_Model
